<svg width="71" height="70" viewBox="0 0 71 70" fill="none" xmlns="http://www.w3.org/2000/svg">
<rect x="0.101807" width="70.1828" height="70" rx="15" fill="#149211" fill-opacity="0.28"/>
<path d="M34.765 46.9583C34.6439 46.9582 34.5237 46.937 34.4099 46.8958C34.1903 46.8156 34.0041 46.6643 33.881 46.466C33.7579 46.2676 33.7051 46.0339 33.731 45.8021L34.5352 38.4167H28.3838C28.1941 38.417 28.0078 38.3657 27.8451 38.2684C27.6824 38.171 27.5493 38.0313 27.4602 37.8643C27.3711 37.6972 27.3293 37.5091 27.3393 37.3201C27.3493 37.1311 27.4107 36.9484 27.517 36.7917L35.7572 24.5C35.8875 24.3076 36.0785 24.1642 36.2999 24.0925C36.5213 24.0208 36.7603 24.0249 36.9791 24.1042C37.1894 24.182 37.369 24.3254 37.4913 24.513C37.6135 24.7006 37.672 24.9225 37.6579 25.1458L36.8538 32.5833H43.0052C43.1949 32.583 43.3812 32.6343 43.5439 32.7316C43.7066 32.829 43.8397 32.9687 43.9288 33.1357C44.0179 33.3028 44.0597 33.4909 44.0497 33.6799C44.0397 33.8689 43.9783 34.0515 43.872 34.2083L35.6318 46.5C35.536 46.6414 35.4069 46.7571 35.2557 46.837C35.1046 46.9169 34.9361 46.9586 34.765 46.9583V46.9583ZM30.3368 36.3333H35.6945C35.8402 36.3337 35.9843 36.3644 36.1174 36.4236C36.2505 36.4828 36.3697 36.5692 36.4673 36.6771C36.5659 36.7865 36.6401 36.9154 36.6851 37.0554C36.7301 37.1955 36.7449 37.3434 36.7284 37.4896L36.2585 41.8125L41.0522 34.6667H35.6945C35.5471 34.6676 35.4012 34.6373 35.2664 34.578C35.1316 34.5186 35.0109 34.4315 34.9122 34.3222C34.8136 34.213 34.7392 34.0842 34.694 33.9443C34.6489 33.8044 34.6339 33.6565 34.6501 33.5104L35.1201 29.1875L30.3368 36.3333Z" fill="#149211"/>
</svg>
