<svg width="71" height="70" viewBox="0 0 71 70" fill="none" xmlns="http://www.w3.org/2000/svg">
<rect x="0.14624" width="70.1828" height="70" rx="15" fill="#FFCD1D" fill-opacity="0.24"/>
<path d="M36.6475 45.9167C36.1432 45.9161 35.6593 45.7178 35.3002 45.3646L28.6057 38.6771C28.4339 38.5067 28.3269 38.2821 28.3028 38.0417L27.3838 28.3021C27.3697 28.1495 27.3896 27.9957 27.4419 27.8517C27.4943 27.7076 27.5778 27.5769 27.6867 27.4688C27.7951 27.3602 27.9262 27.2769 28.0706 27.2247C28.215 27.1724 28.3692 27.1526 28.5222 27.1667L38.2872 28.0833C38.5282 28.1073 38.7534 28.2141 38.9243 28.3854L45.6292 35.0625C45.9844 35.4179 46.1839 35.8992 46.1839 36.401C46.1839 36.9029 45.9844 37.3842 45.6292 37.7396L37.9843 45.3646C37.6291 45.7172 37.1486 45.9156 36.6475 45.9167V45.9167ZM30.3812 37.4688L36.6475 43.7188L44.0104 36.375L37.7441 30.125L29.5874 29.3646L30.3812 37.4688Z" fill="#FFC700"/>
<path d="M34.1723 35.5C35.0375 35.5 35.7389 34.8004 35.7389 33.9375C35.7389 33.0746 35.0375 32.375 34.1723 32.375C33.3071 32.375 32.6057 33.0746 32.6057 33.9375C32.6057 34.8004 33.3071 35.5 34.1723 35.5Z" fill="#FFC700"/>
</svg>
